/* XPM */
static char *image[] = {
"48 48 159 2 0 0",
"   c #000000",
"!  c #F70808",
"#  c #F40909",
"$  c #F10B0B",
"%  c #F20B0B",
"&  c #F80C0C",
"'  c #F00D0D",
"(  c #F30D0D",
")  c #EF0E0E",
"*  c #EE0F0F",
"+  c #EF0F0F",
",  c #EE1010",
"-  c #F01010",
".  c #FA1010",
"/  c #EE1111",
"0  c #F31111",
"1  c #EF1313",
"2  c #ED1414",
"3  c #F41414",
"4  c #F51414",
"5  c #F01515",
"6  c #FC1717",
"7  c #E51919",
"8  c #EC1919",
"9  c #EC1A1A",
":  c #F11B1B",
";  c #E41D1D",
"<  c #F71D1D",
"=  c #F02020",
">  c #ED2121",
"?  c #F62323",
"@  c #DF2929",
"A  c #F02B2B",
"B  c #FA2C2C",
"C  c #E43333",
"D  c #F83333",
"E  c #EE3434",
"F  c #FC3434",
"G  c #F33535",
"H  c #F63636",
"I  c #FB3636",
"J  c #FA3939",
"K  c #CF3B3B",
"L  c #CC3E3E",
"M  c #CD3E3E",
"N  c #F73F3F",
"O  c #EB4343",
"P  c #FA4444",
"Q  c #F44545",
"R  c #FC4545",
"S  c #DF4747",
"T  c #F34747",
"U  c #BC5353",
"V  c #F75454",
"W  c #F95454",
"X  c #ED5959",
"Y  c #FA5959",
"Z  c #FC5959",
"[  c #D06060",
"\  c #FC6161",
"]  c #BA6262",
"^  c #FC6363",
"_  c #C96464",
"`  c #C86565",
"a  c #D86565",
"b  c #F36969",
"c  c #FB6D6D",
"d  c #DF6F6F",
"e  c #FA7171",
"f  c #F97272",
"g  c #E87474",
"h  c #F17474",
"i  c #FB7676",
"j  c #FC7676",
"k  c #FC7979",
"l  c #EA7C7C",
"m  c #FC8080",
"n  c #FD8181",
"o  c #B58282",
"p  c #A98383",
"q  c #AE8383",
"r  c #F68787",
"s  c #FD8B8B",
"t  c #FB8E8E",
"u  c #DE9090",
"v  c #E69090",
"w  c #FD9292",
"x  c #C89393",
"y  c #D49393",
"z  c #FC9393",
"{  c #EF9494",
"|  c #FD9494",
"}  c #FA9B9B",
"~  c #F59F9F",
" ! c #FC9F9F",
"!! c #B0A1A1",
"#! c #ACA2A2",
"$! c #FAA4A4",
"%! c #FCA5A5",
"&! c #FDAAAA",
"'! c #C4ABAB",
"(! c #FDABAB",
")! c #FDACAC",
"*! c #B3AFAF",
"+! c #DDAFAF",
",! c #D6B0B0",
"-! c #FCB0B0",
".! c #FEB2B2",
"/! c #E4B4B4",
"0! c #EFB5B5",
"1! c #E5B7B7",
"2! c #BBB8B8",
"3! c #F5B8B8",
"4! c #FCB8B8",
"5! c #CCBABA",
"6! c #BCBBBB",
"7! c #BABDBD",
"8! c #FABDBD",
"9! c #C5C0C0",
":! c #FEC5C5",
";! c #DBC7C7",
"<! c #C6C8C8",
"=! c #FEC8C8",
">! c #D2C9C9",
"?! c #FEC9C9",
"@! c #D6CACA",
"A! c #FCCCCC",
"B! c #FECCCC",
"C! c #E7D0D0",
"D! c #EFD1D1",
"E! c #DBD2D2",
"F! c #FAD4D4",
"G! c #FED4D4",
"H! c #CFD6D6",
"I! c #E0D8D8",
"J! c #FCD9D9",
"K! c #F4DADA",
"L! c #D9DBDB",
"M! c #FEDDDD",
"N! c #DEDEDE",
"O! c #FEDEDE",
"P! c #FEDFDF",
"Q! c #DEE0E0",
"R! c #EDE1E1",
"S! c #F7E4E4",
"T! c #FDE5E5",
"U! c #E6E6E6",
"V! c #FEE8E8",
"W! c #FAE9E9",
"X! c #FEEAEA",
"Y! c #F1EFEF",
"Z! c #FEEFEF",
"[! c #F4F2F2",
"\! c #FEF2F2",
"]! c #EEF3F3",
"^! c #FEF3F3",
"_! c #F9F4F4",
"`! c #FFFFFF",
"a! c None",
"a!a!a!a!a!a!a!a!a!a!a!a!a!a!a!a!a!a!a!a!a!a!a!a!a!a!a!a!a!a!a!a!a!a!a!a!a!a!a!a!a!a!a!a!a!a!a!a!",
"a!a!a!a!a!a!a!a!a!a!a!a!a!a!a!a!a!a!a!a!a!a!a!a!a!a!a!a!a!a!a!a!a!a!a!a!a!a!a!a!a!a!a!a!a!a!a!a!",
"a!a!a!a!a!a!a!a!a!a!a!a!a!a!a!a!a!a!a!a!a!a!a!a!a!a!a!a!a!a!a!a!a!a!a!a!a!a!a!a!a!a!a!a!a!a!a!a!",
"a!a!a!a!a!a!a!a!a!a!a!a!a!a!a!a!a!a!a!a!a!a!a!a!a!a!a!a!a!a!a!a!a!a!a!a!a!a!a!a!a!a!a!a!a!a!a!a!",
"a!a!a!a!a!a!a!a!a!a!a!a!a!a!a!a!a!a!a!a!a!a!a!a!a!a!a!a!a!a!a!a!a!a!a!a!a!a!a!a!a!a!a!a!a!a!a!a!",
"a!a!a!a!a!a!a!a!a!a!a!a!a!a!a!a!a!a!a!a!a!a!a!a!a!a!a!a!a!a!a!a!a!a!a!a!a!a!a!a!a!a!a!a!a!a!a!a!",
"a!a!a!a!a!a!a!a!a!a!a!a!a!a!a!a!a!a!a!a!a!a!a!a!a!a!a!a!a!a!a!a!a!a!a!a!a!a!a!a!a!a!a!a!a!a!a!a!",
"a!a!a!a!a!a!a!a!a!a!a!a!a!a!a!a!a!a!a!a!a!a!a!a!a!a!a!a!a!a!a!a!a!a!a!a!a!a!a!a!a!a!a!a!a!a!a!a!",
"a!a!a!a!a!a!a!a!a!a!a!a!a!a!a!a!a!a!a!a!a!a!a!a!a!a!a!a!a!a!a!a!a!a!a!a!a!a!a!a!a!a!a!a!a!a!a!a!",
"a!a!a!a!a!a!a!a!a!a!a!a!a!a!a!a!a!a!a!a!a!a!a!a!a!a!a!a!a!a!a!a!a!a!a!a!a!a!a!a!a!a!a!a!a!a!a!a!",
"a!a!a!a!a!a!a!a!a!a!a!a!a!a!a!a!a!a!a!a!a!a!a!a!a!a!a!a!a!a!a!a!a!a!a!a!a!a!a!a!a!a!a!a!a!a!a!a!",
"a!a!a!a!a!a!a!a!a!a!a!a!a!a!a!a!a!a!a!a!a!a!a!a!a!a!a!a!a!a!a!a!a!a!a!a!a!a!a!a!a!a!a!a!a!a!a!a!",
"a!a!a!a!a!a!a!a!a!a!a!a!a!a!a!a!a!a!a!a!a!a!a!a!a!a!a!a!a!a!a!a!a!a!a!a!a!a!a!a!a!a!a!a!a!a!a!-!",
"a!a!a!a!a!a!a!a!a!a!a!a!a!a!a!a!a!a!a!a!a!a!a!a!a!a!a!a!a!a!a!a!a!a!a!a!a!a!a!a!a!a!a!a!a!R Q /!",
"a!a!a!a!a!a!a!a!a!a!a!a!a!a!a!a!a!a!a!a!a!a!a!a!a!a!a!a!a!a!a!a!a!a!a!a!a!a!a!a!a!a!n F 6 3 ` 9!",
"a!a!a!a!a!a!a!a!a!a!a!a!a!a!a!a!a!a!a!a!a!a!a!a!a!a!a!a!a!a!a!a!a!a!a!a!a!a!a!a!\ I . & ! L !!a!",
"a!a!a!a!a!a!a!a!a!a!a!a!a!a!a!a!a!a!a!a!a!a!a!a!a!a!a!a!a!a!a!a!a!a!a!a!a!a!^ B < 4 ( # 7 p a!a!",
"a!a!a!a!a!a!a!a!a!a!a!a!a!a!a!a!a!a!a!a!a!a!a!a!a!a!a!a!a!a!a!a!a!a!a!s Z J ? : 5 - % ' U 7!a!a!",
"a!a!a!a!a!a!a!a!a!a!a!a!a!a!a!a!a!a!a!a!a!a!a!a!a!a!a!a!a!a!a!a!a!m P D A > 9 2 / ) $ M #!a!a!a!",
"a!a!a!a!a!a!a!a!a!a!a!a!a!a!a!a!a!a!a!a!a!a!a!a!a!a!a!a!a!a!%!k Y H E S [ C 8 2 , ' ; q <!a!a!a!",
"a!a!a!a!a!a!a!a!a!a!a!a!a!a!a!a!a!a!a!a!a!a!a!a!a!a!a!a! !j W T O a x '!>!l = 2 * % ] 6!a!a!a!a!",
"a!a!a!a!a!a!a!a!a!a!a!a!a!a!a!a!a!a!a!a!a!a!a!a!a!a!| c V X d y 5!H!a!a!a!a!N 1 + K *!a!a!a!a!a!",
"a!a!a!a!a!a!a!a!a!a!a!a!a!a!a!a!a!a!a!a!a!a!a!a!z f b g u ,!E!N!a!a!a!a!a!a!e 0 @ o a!a!a!a!a!a!",
"a!a!a!a!a!a!a!a!a!a!a!a!a!a!a!a!a!a!a!a!a!.!w i h v +!@!L!a!a!a!a!a!a!a!a!a!a!G _ 2!a!a!a!a!a!a!",
"a!a!a!a!a!a!a!a!a!a!a!a!a!a!a!a!a!a!a!&!t r { 1!I!Q!a!a!a!a!a!a!a!a!a!a!a!a!a!a!;!a!a!a!a!a!a!a!",
"a!a!a!a!a!a!a!a!a!a!a!a!a!a!a!a!=!)!} ~ 0!C!U!a!a!a!a!a!a!a!a!a!a!a!a!a!a!a!a!a!a!a!a!a!a!a!a!a!",
"a!a!a!a!a!a!a!a!a!a!a!a!a!a!?!(!$!3!D!R!a!a!a!a!a!a!a!a!a!a!a!a!a!a!a!a!a!a!a!a!a!a!a!a!a!a!a!a!",
"a!a!a!a!a!a!a!a!a!a!a!a!:!4!8!K!Y!]!a!a!a!a!a!a!a!a!a!a!a!a!a!a!a!a!a!a!a!a!a!a!a!a!a!a!a!a!a!a!",
"a!a!a!a!a!a!a!a!a!O!B!A!F!S![!a!a!a!a!a!a!a!a!a!a!a!a!a!a!a!a!a!a!a!a!a!a!a!a!a!a!a!a!a!a!a!a!a!",
"a!a!a!a!a!a!a!M!G!J!W!_!a!a!a!a!a!a!a!a!a!a!a!a!a!a!a!a!a!a!a!a!a!a!a!a!a!a!a!a!a!a!a!a!a!a!a!a!",
"a!a!a!a!a!P!O!T!a!a!a!a!a!a!a!a!a!a!a!a!a!a!a!a!a!a!a!a!a!a!a!a!a!a!a!a!a!a!a!a!a!a!a!a!a!a!a!a!",
"a!a!Z!X!V!a!a!a!a!a!a!a!a!a!a!a!a!a!a!a!a!a!a!a!a!a!a!a!a!a!a!a!a!a!a!a!a!a!a!a!a!a!a!a!a!a!a!a!",
"^!^!\!a!a!a!a!a!a!a!a!a!a!a!a!a!a!a!a!a!a!a!a!a!a!a!a!a!a!a!a!a!a!a!a!a!a!a!a!a!a!a!a!a!a!a!a!a!",
"a!a!a!a!a!a!a!a!a!a!a!a!a!a!a!a!a!a!a!a!a!a!a!a!a!a!a!a!a!a!a!a!a!a!a!a!a!a!a!a!a!a!a!a!a!a!a!a!",
"a!a!a!a!a!a!a!a!a!a!a!a!a!a!a!a!a!a!a!a!a!a!a!a!a!a!a!a!a!a!a!a!a!a!a!a!a!a!a!a!a!a!a!a!a!a!a!a!",
"a!a!a!a!a!a!a!a!a!a!a!a!a!a!a!a!a!a!a!a!a!a!a!a!a!a!a!a!a!a!a!a!a!a!a!a!a!a!a!a!a!a!a!a!a!a!a!a!",
"a!a!a!a!a!a!a!a!a!a!a!a!a!a!a!a!a!a!a!a!a!a!a!a!a!a!a!a!a!a!a!a!a!a!a!a!a!a!a!a!a!a!a!a!a!a!a!a!",
"a!a!a!a!a!a!a!a!a!a!a!a!a!a!a!a!a!a!a!a!a!a!a!a!a!a!a!a!a!a!a!a!a!a!a!a!a!a!a!a!a!a!a!a!a!a!a!a!",
"a!a!a!a!a!a!a!a!a!a!a!a!a!a!a!a!a!a!a!a!a!a!a!a!a!a!a!a!a!a!a!a!a!a!a!a!a!a!a!a!a!a!a!a!a!a!a!a!",
"a!a!a!a!a!a!a!a!a!a!a!a!a!a!a!a!a!a!a!a!a!a!a!a!a!a!a!a!a!a!a!a!a!a!a!a!a!a!a!a!a!a!a!a!a!a!a!a!",
"a!a!a!a!a!a!a!a!a!a!a!a!a!a!a!a!a!a!a!a!a!a!a!a!a!a!a!a!a!a!a!a!a!a!a!a!a!a!a!a!a!a!a!a!a!a!a!a!",
"a!a!a!a!a!a!a!a!a!a!a!a!a!a!a!a!a!a!a!a!a!a!a!a!a!a!a!a!a!a!a!a!a!a!a!a!a!a!a!a!a!a!a!a!a!a!a!a!",
"a!a!a!a!a!a!a!a!a!a!a!a!a!a!a!a!a!a!a!a!a!a!a!a!a!a!a!a!a!a!a!a!a!a!a!a!a!a!a!a!a!a!a!a!a!a!a!a!",
"a!a!a!a!a!a!a!a!a!a!a!a!a!a!a!a!a!a!a!a!a!a!a!a!a!a!a!a!a!a!a!a!a!a!a!a!a!a!a!a!a!a!a!a!a!a!a!a!",
"a!a!a!a!a!a!a!a!a!a!a!a!a!a!a!a!a!a!a!a!a!a!a!a!a!a!a!a!a!a!a!a!a!a!a!a!a!a!a!a!a!a!a!a!a!a!a!a!",
"a!a!a!a!a!a!a!a!a!a!a!a!a!a!a!a!a!a!a!a!a!a!a!a!a!a!a!a!a!a!a!a!a!a!a!a!a!a!a!a!a!a!a!a!a!a!a!a!",
"a!a!a!a!a!a!a!a!a!a!a!a!a!a!a!a!a!a!a!a!a!a!a!a!a!a!a!a!a!a!a!a!a!a!a!a!a!a!a!a!a!a!a!a!a!a!a!a!",
"a!a!a!a!a!a!a!a!a!a!a!a!a!a!a!a!a!a!a!a!a!a!a!a!a!a!a!a!a!a!a!a!a!a!a!a!a!a!a!a!a!a!a!a!a!a!a!a!"
};
